{"title":"Have i got a bit more news for you S54E04. revittony","magnet":"magnet:?xt=urn:btih:f555fa190303436fd82affd8d460c1ffec8f72c4&dn=Have+i+got+a+bit+more+news+for+you+S54E04.+revittony&tr=udp%3A%2F%2Ftracker.leechers-paradise.org%3A6969&tr=udp%3A%2F%2Fzer0day.ch%3A1337&tr=udp%3A%2F%2Fopen.demonii.com%3A1337&tr=udp%3A%2F%2Ftracker.coppersurfer.tk%3A6969&tr=udp%3A%2F%2Fexodus.desync.com%3A6969","uploader":"revittony1","categoryP":"video","categoryS":"tv_shows","size":"756061357","seeders":"2","leechers":"2","description":"Have i got a bit more news for you S54E05.mp4 \r\nFormat : MPEG-4 \r\nFormat profile : Base Media \r\nCodec ID : isom (isom/iso2/avc1/mp41) \r\nFile size : 721 MiB \r\nDuration : 42 min 5 s \r\nOverall bit rate mode : Variable \r\nOverall bit rate : 2 395 kb/s \r\n\r\nVideo \r\nID : 1 \r\nFormat : AVC \r\nFormat/Info : Advanced Video Codec \r\nFormat profile : <a href=\"/cdn-cgi/l/email-protection\" class=\"__cf_email__\" data-cfemail=\"236b4a444b636f170d12\">[email&#xA0;protected]</a> \r\nFormat settings : CABAC / 2 Ref Frames \r\nFormat settings, CABAC : Yes \r\nFormat settings, RefFrames : 2 frames \r\nCodec ID : avc1 \r\nCodec ID/Info : Advanced Video Coding \r\nDuration : 42 min 5 s \r\nBit rate mode : Variable \r\nBit rate : 2 297 kb/s \r\nMaximum bit rate : 3 500 kb/s \r\nWidth : 1 280 pixels \r\nHeight : 720 pixels \r\nDisplay aspect ratio : 16:9 \r\nFrame rate mode : Constant \r\nFrame rate : 25.000 FPS \r\nColor space : YUV \r\nChroma subsampling : 4:2:0 \r\nBit depth : 8 bits \r\nScan type : Progressive \r\nBits/(Pixel*Frame) : 0.100 \r\nStream size : 691 MiB (96%) \r\n\r\nAudio \r\nID : 2 \r\nFormat : AAC \r\nFormat/Info : Advanced Audio Codec \r\nFormat profile : LC \r\nCodec ID : mp4a-40-2 \r\nDuration : 42 min 5 s \r\nBit rate mode : Variable \r\nBit rate : 93.4 kb/s \r\nMaximum bit rate : 102 kb/s \r\nChannel(s) : 2 channels \r\nChannel positions : Front: L R \r\nSampling rate : 48.0 kHz \r\nFrame rate : 46.875 FPS (1024 SPF) \r\nCompression mode : Lossy \r\nStream size : 28.1 MiB (4%) \r\nDefault : Yes \r\nAlternate group : 1","last_updated":"2017-11-07T12:02:53.508Z","parsed":{"xt":"urn:btih:f555fa190303436fd82affd8d460c1ffec8f72c4","dn":"Have i got a bit more news for you S54E04. revittony","tr":["udp://exodus.desync.com:6969","udp://open.demonii.com:1337","udp://tracker.coppersurfer.tk:6969","udp://tracker.leechers-paradise.org:6969","udp://zer0day.ch:1337"],"infoHash":"f555fa190303436fd82affd8d460c1ffec8f72c4","infoHashBuffer":{"type":"Buffer","data":[245,85,250,25,3,3,67,111,216,42,255,216,212,96,193,255,236,143,114,196]},"name":"Have i got a bit more news for you S54E04. revittony","announce":["udp://exodus.desync.com:6969","udp://open.demonii.com:1337","udp://tracker.coppersurfer.tk:6969","udp://tracker.leechers-paradise.org:6969","udp://zer0day.ch:1337"],"urlList":[]}}